<svg width="251" height="97" viewBox="0 0 251 97" fill="none" xmlns="http://www.w3.org/2000/svg">
<path d="M80.4322 36.4381C82.7754 38.7813 82.7754 42.5803 80.4322 44.9234L37.8609 87.4947C35.5178 89.8379 31.7188 89.8379 29.3756 87.4947L2.58548 60.7046C0.242337 58.3614 0.24234 54.5624 2.58549 52.2193L45.1568 9.64798C47.4999 7.30484 51.2989 7.30484 53.6421 9.64799L80.4322 36.4381Z" fill="white"/>
<path d="M90.4321 44.9234C92.7752 42.5803 92.7752 38.7813 90.4321 36.4381L70.7333 16.7393L77.8246 9.64798C80.1678 7.30484 83.9667 7.30484 86.3099 9.64799L113.1 36.4381C115.443 38.7813 115.443 42.5803 113.1 44.9234L70.5288 87.4947C68.1856 89.8379 64.3866 89.8379 62.0435 87.4947L54.9521 80.4034L90.4321 44.9234Z" fill="white"/>
<path d="M151.032 26.0507C155.725 26.0507 159.843 26.968 163.384 28.8027C166.968 30.6373 169.72 33.2613 171.64 36.6747C173.603 40.0453 174.584 43.9707 174.584 48.4507C174.584 52.9307 173.603 56.856 171.64 60.2267C169.72 63.5547 166.968 66.136 163.384 67.9707C159.843 69.8053 155.725 70.7227 151.032 70.7227H135.416V26.0507H151.032ZM150.712 63.1067C155.405 63.1067 159.032 61.8267 161.592 59.2667C164.152 56.7067 165.432 53.1013 165.432 48.4507C165.432 43.8 164.152 40.1733 161.592 37.5707C159.032 34.9253 155.405 33.6027 150.712 33.6027H144.376V63.1067H150.712ZM214.251 52.2267C214.251 53.5067 214.166 54.6587 213.995 55.6827H188.075C188.288 58.2427 189.184 60.248 190.763 61.6987C192.342 63.1493 194.283 63.8747 196.587 63.8747C199.915 63.8747 202.283 62.4453 203.691 59.5867H213.355C212.331 63 210.368 65.816 207.467 68.0347C204.566 70.2107 201.003 71.2987 196.779 71.2987C193.366 71.2987 190.294 70.552 187.563 69.0587C184.875 67.5227 182.763 65.368 181.227 62.5947C179.734 59.8213 178.987 56.6213 178.987 52.9947C178.987 49.3253 179.734 46.104 181.227 43.3307C182.72 40.5573 184.811 38.424 187.499 36.9307C190.187 35.4373 193.28 34.6907 196.779 34.6907C200.15 34.6907 203.158 35.416 205.803 36.8667C208.491 38.3173 210.56 40.3867 212.011 43.0747C213.504 45.72 214.251 48.7707 214.251 52.2267ZM204.971 49.6667C204.928 47.3627 204.096 45.528 202.475 44.1627C200.854 42.7547 198.87 42.0507 196.523 42.0507C194.304 42.0507 192.427 42.7333 190.891 44.0987C189.398 45.4213 188.48 47.2773 188.139 49.6667H204.971ZM240.375 70.7227L233.079 59.7147L226.615 70.7227H217.015L228.599 52.9307L216.887 35.2667H226.999L234.231 46.2107L240.759 35.2667H250.359L238.711 52.9307L250.487 70.7227H240.375Z" fill="white"/>
</svg>
