<svg width="245" height="96" viewBox="0 0 245 96" fill="none" xmlns="http://www.w3.org/2000/svg">
<path d="M112.272 35.5475C114.615 37.8907 114.615 41.6897 112.272 44.0328L69.7008 86.6041C67.3576 88.9472 63.5586 88.9472 61.2155 86.6041L34.4253 59.8139C32.0822 57.4708 32.0822 53.6718 34.4253 51.3286L76.9966 8.75736C79.3398 6.41421 83.1387 6.41422 85.4819 8.75736L112.272 35.5475Z" fill="#4F46E5"/>
<path d="M79.6041 35.5475C81.9472 37.8907 81.9472 41.6897 79.6041 44.0328L37.0328 86.6041C34.6897 88.9472 30.8907 88.9472 28.5475 86.6041L1.75736 59.8139C-0.585788 57.4708 -0.585785 53.6718 1.75736 51.3286L44.3286 8.75736C46.6718 6.41421 50.4708 6.41422 52.8139 8.75736L79.6041 35.5475Z" fill="#818CF8"/>
<path d="M145.032 25.328C149.725 25.328 153.843 26.2453 157.384 28.08C160.968 29.9147 163.72 32.5387 165.64 35.952C167.603 39.3227 168.584 43.248 168.584 47.728C168.584 52.208 167.603 56.1333 165.64 59.504C163.72 62.832 160.968 65.4133 157.384 67.248C153.843 69.0827 149.725 70 145.032 70H129.416V25.328H145.032ZM144.712 62.384C149.405 62.384 153.032 61.104 155.592 58.544C158.152 55.984 159.432 52.3787 159.432 47.728C159.432 43.0773 158.152 39.4507 155.592 36.848C153.032 34.2027 149.405 32.88 144.712 32.88H138.376V62.384H144.712ZM208.251 51.504C208.251 52.784 208.166 53.936 207.995 54.96H182.075C182.288 57.52 183.184 59.5253 184.763 60.976C186.342 62.4267 188.283 63.152 190.587 63.152C193.915 63.152 196.283 61.7227 197.691 58.864H207.355C206.331 62.2773 204.368 65.0933 201.467 67.312C198.566 69.488 195.003 70.576 190.779 70.576C187.366 70.576 184.294 69.8293 181.563 68.336C178.875 66.8 176.763 64.6453 175.227 61.872C173.734 59.0987 172.987 55.8987 172.987 52.272C172.987 48.6027 173.734 45.3813 175.227 42.608C176.72 39.8347 178.811 37.7013 181.499 36.208C184.187 34.7147 187.28 33.968 190.779 33.968C194.15 33.968 197.158 34.6933 199.803 36.144C202.491 37.5947 204.56 39.664 206.011 42.352C207.504 44.9973 208.251 48.048 208.251 51.504ZM198.971 48.944C198.928 46.64 198.096 44.8053 196.475 43.44C194.854 42.032 192.87 41.328 190.523 41.328C188.304 41.328 186.427 42.0107 184.891 43.376C183.398 44.6987 182.48 46.5547 182.139 48.944H198.971ZM234.375 70L227.079 58.992L220.615 70H211.015L222.599 52.208L210.887 34.544H220.999L228.231 45.488L234.759 34.544H244.359L232.711 52.208L244.487 70H234.375Z" fill="#4F46E5"/>
</svg>
